<svg width="13" height="14" viewBox="0 0 13 14" fill="none" xmlns="http://www.w3.org/2000/svg">
<path fill-rule="evenodd" clip-rule="evenodd" d="M8.36484 2.31406C8.88612 1.71852 9.14764 1.07511 9.14764 0.386008C9.14764 0.29461 9.14322 0.202474 9.13262 0.110352C8.7695 0.128487 8.3834 0.234393 7.97521 0.425897C7.56614 0.620301 7.22881 0.864001 6.96358 1.15709C6.43232 1.73596 6.13316 2.44393 6.13316 3.10547C6.13316 3.1969 6.13926 3.28391 6.14977 3.36658C6.97489 3.43113 7.73578 3.02203 8.36484 2.31406ZM11.1399 12.1802C11.4368 11.7728 11.693 11.3297 11.9095 10.8483C11.9987 10.6441 12.0826 10.4315 12.1622 10.2095C11.7955 10.0615 11.4659 9.85315 11.1708 9.58353C10.5197 9.00263 10.1884 8.27101 10.1787 7.39182C10.1681 6.2631 10.7008 5.38323 11.7778 4.75503C11.1761 3.93173 10.2714 3.47474 9.06719 3.38118C8.62278 3.34487 8.0803 3.43706 7.43754 3.65973C6.75784 3.89983 6.3569 4.02027 6.2386 4.02027C6.08036 4.02027 5.71944 3.91727 5.15735 3.71416C4.59366 3.51174 4.14007 3.40874 3.79417 3.40874C3.16201 3.41886 2.575 3.57706 2.03172 3.8875C1.48845 4.19794 1.05437 4.62082 0.728091 5.15691C0.312925 5.82431 0.105652 6.62074 0.105652 7.54415C0.105652 8.35028 0.259384 9.18294 0.566054 10.0428C0.852402 10.8389 1.21791 11.5372 1.6625 12.1394C2.07687 12.7033 2.42277 13.1013 2.69931 13.3335C3.13259 13.7213 3.56666 13.9059 4.00215 13.888C4.2885 13.8787 4.66302 13.7843 5.12793 13.6031C5.59213 13.4228 6.02611 13.3335 6.43077 13.3335C6.8166 13.3335 7.23857 13.4228 7.69773 13.6031C8.15539 13.7843 8.54856 13.8736 8.87458 13.8736C9.32871 13.8634 9.7528 13.6839 10.1486 13.3335C10.404 13.12 10.7353 12.7356 11.1399 12.1802Z" fill="black" fill-opacity="0.85"/>
</svg>
