<svg width="35" height="11" viewBox="0 0 35 11" fill="none" xmlns="http://www.w3.org/2000/svg">
<g clip-path="url(#clip0_7032_114643)">
<path d="M21.174 8.06233C19.1926 9.52278 16.3207 10.302 13.848 10.302C10.3809 10.302 7.25968 9.01964 4.89834 6.88685C4.71281 6.71914 4.87904 6.49057 5.10167 6.62118C7.65003 8.10389 10.801 8.99589 14.0558 8.99589C16.2509 8.99589 18.6657 8.54173 20.886 7.59926C21.2215 7.45678 21.502 7.81892 21.174 8.06233Z" fill="black" fill-opacity="0.85"/>
<path d="M21.9967 7.11981C21.7444 6.79625 20.3225 6.96693 19.6843 7.04263C19.4899 7.06637 19.4602 6.89718 19.6353 6.77547C20.7678 5.97846 22.626 6.20851 22.8427 6.47567C23.0593 6.74431 22.7863 8.60697 21.7221 9.496C21.5588 9.63254 21.403 9.55982 21.4757 9.37874C21.7147 8.7821 22.2505 7.44484 21.9967 7.11981Z" fill="black" fill-opacity="0.85"/>
<path d="M19.7296 1.14888V0.374136C19.7296 0.256885 19.8186 0.178223 19.9255 0.178223H23.394C23.5053 0.178223 23.5944 0.258369 23.5944 0.374136V1.03757C23.5929 1.14888 23.4994 1.29433 23.3332 1.52438L21.5358 4.09055C22.2037 4.07423 22.9087 4.17367 23.5143 4.51503C23.6508 4.59221 23.6879 4.70501 23.6983 4.81632V5.64302C23.6983 5.75581 23.5736 5.88791 23.443 5.81963C22.3759 5.26009 20.9585 5.19924 19.7785 5.82557C19.6583 5.89088 19.5322 5.76027 19.5322 5.64747V4.86233C19.5322 4.73618 19.5336 4.52097 19.6598 4.32951L21.7421 1.34331H19.9299C19.8186 1.34331 19.7296 1.26465 19.7296 1.14888Z" fill="black" fill-opacity="0.85"/>
<path d="M7.07691 5.98273H6.02165C5.92073 5.97531 5.84058 5.89961 5.83316 5.80314V0.387326C5.83316 0.27898 5.9237 0.192896 6.03649 0.192896H7.02051C7.12292 0.197346 7.20455 0.276011 7.21197 0.373967V1.08193H7.23127C7.48803 0.397714 7.9704 0.0786133 8.62047 0.0786133C9.28094 0.0786133 9.69354 0.397714 9.99038 1.08193C10.2457 0.397714 10.826 0.0786133 11.4479 0.0786133C11.8901 0.0786133 12.374 0.261169 12.6693 0.670806C13.0033 1.12645 12.935 1.7884 12.935 2.36872L12.9335 5.78681C12.9335 5.89516 12.843 5.98273 12.7302 5.98273H11.6764C11.571 5.97531 11.4864 5.89071 11.4864 5.78681V2.91639C11.4864 2.68782 11.5072 2.11789 11.4568 1.9012C11.3781 1.53757 11.1421 1.43516 10.8364 1.43516C10.5811 1.43516 10.3139 1.60585 10.2056 1.87894C10.0972 2.15203 10.1076 2.60916 10.1076 2.91639V5.78681C10.1076 5.89516 10.0171 5.98273 9.9043 5.98273H8.85052C8.74366 5.97531 8.66055 5.89071 8.66055 5.78681L8.65906 2.91639C8.65906 2.31232 8.7585 1.42329 8.00899 1.42329C7.25056 1.42329 7.28025 2.29006 7.28025 2.91639V5.78681C7.28025 5.89516 7.18971 5.98273 7.07691 5.98273Z" fill="black" fill-opacity="0.85"/>
<path d="M26.5799 0.0786133C28.1457 0.0786133 28.9932 1.42329 28.9932 3.13308C28.9932 4.78498 28.0566 6.09552 26.5799 6.09552C25.0423 6.09552 24.2052 4.75085 24.2052 3.0752C24.2052 1.38915 25.0526 0.0786133 26.5799 0.0786133ZM26.5888 1.18434C25.8111 1.18434 25.7621 2.24405 25.7621 2.90451C25.7621 3.56646 25.7517 4.97941 26.5799 4.97941C27.3977 4.97941 27.4363 3.83955 27.4363 3.14495C27.4363 2.68782 27.417 2.14164 27.2789 1.70825C27.1602 1.33127 26.9242 1.18434 26.5888 1.18434Z" fill="black" fill-opacity="0.85"/>
<path d="M31.0235 5.98273H29.9727C29.8673 5.97531 29.7827 5.89071 29.7827 5.78681L29.7812 0.369515C29.7902 0.270074 29.8777 0.192896 29.9846 0.192896H30.9627C31.0547 0.197346 31.1304 0.259685 31.1512 0.344284V1.17246H31.1705C31.4658 0.431851 31.8799 0.0786133 32.6086 0.0786133C33.0821 0.0786133 33.5437 0.249295 33.8405 0.716815C34.1166 1.1502 34.1166 1.87894 34.1166 2.40286V5.81205C34.1047 5.90703 34.0171 5.98273 33.9132 5.98273H32.855C32.7585 5.97531 32.6784 5.90407 32.668 5.81205V2.87038C32.668 2.27819 32.7363 1.41142 32.0075 1.41142C31.7508 1.41142 31.5148 1.58358 31.3975 1.8448C31.2491 2.17578 31.2298 2.50527 31.2298 2.87038V5.78681C31.2283 5.89516 31.1363 5.98273 31.0235 5.98273Z" fill="black" fill-opacity="0.85"/>
<path d="M16.9639 3.39597V3.1674C16.201 3.1674 15.3951 3.33067 15.3951 4.23009C15.3951 4.68573 15.6311 4.99444 16.0363 4.99444C16.3331 4.99444 16.5988 4.81189 16.7665 4.51505C16.9743 4.14994 16.9639 3.80709 16.9639 3.39597ZM18.028 5.96807C17.9583 6.03041 17.8574 6.03486 17.7787 5.99331C17.4284 5.7024 17.3661 5.56734 17.1731 5.2898C16.5943 5.88051 16.1847 6.05712 15.4337 6.05712C14.5461 6.05712 13.8545 5.50946 13.8545 4.41264C13.8545 3.55626 14.319 2.97298 14.9795 2.68801C15.5524 2.4357 16.3524 2.39117 16.9639 2.32142V2.18487C16.9639 1.93404 16.9832 1.6372 16.8362 1.42051C16.7071 1.22608 16.4607 1.14594 16.244 1.14594C15.8418 1.14594 15.4826 1.35224 15.3951 1.77969C15.3773 1.87467 15.3075 1.96818 15.2125 1.97263L14.1884 1.8628C14.1024 1.84351 14.0074 1.77375 14.0311 1.64166C14.2671 0.400873 15.3877 0.0268555 16.391 0.0268555C16.9045 0.0268555 17.5754 0.163401 17.9805 0.552259C18.4941 1.03165 18.4451 1.67134 18.4451 2.36743V4.01191C18.4451 4.50615 18.6499 4.72284 18.8429 4.98999C18.9111 5.08498 18.926 5.19926 18.8399 5.2705C18.6247 5.45009 18.2418 5.78403 18.031 5.97104L18.028 5.96807Z" fill="black" fill-opacity="0.85"/>
<path d="M3.12989 3.39597V3.1674C2.36701 3.1674 1.5611 3.33067 1.5611 4.23009C1.5611 4.68573 1.79708 4.99444 2.20227 4.99444C2.49911 4.99444 2.76478 4.81189 2.93249 4.51505C3.14028 4.14994 3.12989 3.80709 3.12989 3.39597ZM4.19405 5.96807C4.1243 6.03041 4.02337 6.03486 3.94471 5.99331C3.59444 5.7024 3.5321 5.56734 3.33916 5.2898C2.76032 5.88051 2.35069 6.05712 1.59969 6.05712C0.71214 6.05712 0.0205078 5.50946 0.0205078 4.41264C0.0205078 3.55626 0.48506 2.97298 1.14552 2.68801C1.71842 2.4357 2.5184 2.39117 3.12989 2.32142V2.18487C3.12989 1.93404 3.14918 1.6372 3.00225 1.42051C2.87312 1.22608 2.62675 1.14594 2.41006 1.14594C2.00784 1.14594 1.64867 1.35224 1.5611 1.77969C1.54329 1.87467 1.47353 1.96818 1.37854 1.97263L0.354451 1.8628C0.268368 1.84351 0.173379 1.77375 0.197126 1.64166C0.433113 0.400873 1.55368 0.0268555 2.55699 0.0268555C3.07052 0.0268555 3.74137 0.163401 4.14656 0.552259C4.66009 1.03165 4.61111 1.67134 4.61111 2.36743V4.01191C4.61111 4.50615 4.81593 4.72284 5.00887 4.98999C5.07715 5.08498 5.09199 5.19926 5.00591 5.2705C4.7907 5.45009 4.40778 5.78403 4.19702 5.97104L4.19405 5.96807Z" fill="black" fill-opacity="0.85"/>
</g>
<defs>
<clipPath id="clip0_7032_114643">
<rect width="34.1371" height="10.3034" fill="white" transform="translate(0 0.0131836)"/>
</clipPath>
</defs>
</svg>
