<svg width="28" height="16" viewBox="0 0 28 16" fill="none" xmlns="http://www.w3.org/2000/svg">
<g clip-path="url(#clip0_7032_114654)">
<path d="M13.7626 15.1827C10.5197 15.1827 7.77748 13.0454 6.86509 10.1029C6.86225 10.0888 6.86794 10.0746 6.88213 10.072C6.89633 10.0692 6.91051 10.0748 6.91306 10.089C7.86753 12.7631 10.5726 14.6911 13.7615 14.6911C16.9504 14.6911 19.6555 12.7631 20.61 10.089C20.6128 10.0748 20.627 10.0692 20.6421 10.072C20.6563 10.0748 20.6619 10.089 20.6591 10.1029C19.7467 13.0454 17.0056 15.1827 13.7626 15.1827Z" fill="black" fill-opacity="0.85"/>
<path d="M10.5226 4.16704C10.5198 4.16193 10.5027 4.14489 10.497 4.14092C10.4772 4.127 10.4681 4.12784 10.4519 4.13182C10.4349 4.13579 10.432 4.1409 10.4198 4.14488C10.4056 4.14885 10.3909 4.14886 10.3767 4.14388C10.3477 4.1348 10.3287 4.09781 10.3066 4.07277C10.3009 4.07987 10.2895 4.09378 10.2895 4.09378C10.2115 4.05974 10.1322 4.04469 10.0471 4.07078C10.0386 4.07278 10.0244 4.06284 10.015 4.05971C9.98404 4.1218 9.91875 4.13181 9.86084 4.14382C9.83529 4.14893 9.80974 4.16085 9.78362 4.17488C9.76943 4.18481 9.75522 4.21593 9.74045 4.22695C9.72626 4.24001 9.71037 4.23405 9.69731 4.24796C9.65415 4.29503 9.62406 4.34911 9.62321 4.39919C9.62222 4.43825 9.60901 4.46929 9.56813 4.48732C9.55109 4.49527 9.53209 4.51229 9.52414 4.52938C9.48013 4.61552 9.435 4.70364 9.39894 4.7948C9.38475 4.83185 9.37907 4.88296 9.35976 4.917C9.32882 4.9741 9.34273 5.02515 9.35409 5.08125C9.36544 5.13933 9.39808 5.27155 9.39808 5.27155C9.21667 5.27553 8.92936 5.28547 8.70103 5.29655C8.69901 5.2675 8.64199 5.17534 8.63091 5.15834C8.61956 5.14244 8.59087 5.05516 8.64794 4.99509C8.66781 4.97209 8.73111 4.88091 8.73111 4.82183C8.7331 4.6756 8.67292 4.51535 8.65901 4.39617C8.73112 4.29201 8.65617 4.18686 8.66184 4.0807C8.66184 4.07758 8.64766 4.0648 8.64198 4.0577C8.71608 3.96356 8.74305 3.80734 8.69195 3.77827C8.5236 3.9856 8.62181 4.262 8.51876 4.49035C8.51024 4.52141 8.49604 4.55044 8.52727 4.58448C8.55623 4.61452 8.50458 4.73572 8.48527 4.71669C8.51366 4.6596 8.43416 4.60954 8.39612 4.55747C8.38477 4.54243 8.39612 4.52441 8.39612 4.50837C8.46113 4.44228 8.49237 4.37319 8.43019 4.28705C8.41316 4.26292 8.41882 4.22395 8.41315 4.19292C8.48724 4.16388 8.52841 4.11077 8.51137 4.04468C8.49434 3.97657 8.51422 3.91649 8.53977 3.85642C8.57071 3.78229 8.60394 3.70818 8.63602 3.63206C8.6559 3.58298 8.67009 3.53592 8.63503 3.49286C8.62935 3.48576 8.62651 3.47269 8.62935 3.46786C8.66853 3.36069 8.72132 3.26053 8.78463 3.1624C8.82466 3.08728 8.87066 3.01818 8.92176 2.95106C8.21366 3.53796 7.63277 4.24805 7.21714 5.04627C7.21146 5.05535 7.20296 5.06017 7.19444 5.06017C7.18025 5.06017 7.16888 5.04825 7.16888 5.03405L7.1709 5.02411C7.73375 3.76719 8.63913 2.70056 9.78988 1.9394C10.9697 1.15921 12.3448 0.746582 13.765 0.746582C15.1851 0.746582 16.5602 1.15921 17.74 1.9394C18.8908 2.70056 19.7961 3.76719 20.359 5.02411L20.361 5.03405C20.361 5.04796 20.3497 5.06017 20.3355 5.06017C20.327 5.06017 20.3184 5.05506 20.3128 5.04711C20.2225 4.87084 20.1225 4.70159 20.0163 4.53633C19.9663 4.49727 19.9172 4.46121 19.8891 4.39912C19.8664 4.34703 19.7738 4.33003 19.733 4.28396C19.6909 4.23689 19.6398 4.19281 19.6117 4.13771C19.5547 4.02353 19.4576 3.95945 19.3454 3.90034C19.2333 3.82522 19.1441 3.71705 19.026 3.63995C19.0146 3.63399 19.0061 3.64989 18.9976 3.66096C19.0146 3.74309 19.0776 3.81219 19.1537 3.86426C19.2258 3.92935 19.2698 4.01849 19.3661 4.06454C19.4552 4.11863 19.5253 4.20076 19.6034 4.27085L19.6006 4.27596L19.5864 4.29498C19.5637 4.27795 19.5392 4.26096 19.5162 4.24393L19.5106 4.24705C19.5219 4.27317 19.5248 4.30714 19.5435 4.31816C19.6006 4.3562 19.6105 4.41629 19.6026 4.46035C19.6016 4.46745 19.6006 4.47343 19.5997 4.47939C19.5977 4.48734 19.5969 4.49529 19.5969 4.50352V4.50664C19.5959 4.5126 19.5959 4.51657 19.5959 4.52366C19.5959 4.55472 19.6016 4.58377 19.6101 4.61281C19.6129 4.62871 19.6158 4.64486 19.6215 4.6619C19.5675 4.62584 19.5124 4.59279 19.4602 4.55472C19.4488 4.54564 19.4488 4.52168 19.4431 4.50365V4.49555C19.4659 4.45949 19.5252 4.48249 19.5743 4.47454C19.5252 4.28927 19.358 4.21416 19.2188 4.09898C19.1538 4.04589 19.0944 3.9868 19.0374 3.9267C18.9922 3.87761 18.9443 3.82254 18.8773 3.80653C18.8631 3.82442 18.8489 3.83858 18.8392 3.85962C18.8279 3.88176 18.8335 3.93973 18.8103 3.93474C18.7572 3.92366 18.6791 3.88164 18.632 3.91685C18.6206 3.94296 18.631 3.99298 18.6575 4.012C18.7237 4.06707 18.6831 4.12015 18.632 4.16223C18.5951 4.19729 18.5971 4.25735 18.5971 4.30442C18.5971 4.32345 18.5942 4.35249 18.6027 4.36052C18.6788 4.40961 18.6376 4.4847 18.6507 4.54781C18.6497 4.59988 18.645 4.68103 18.5826 4.68804C18.4173 4.70195 18.3532 4.85028 18.3242 4.80821C18.2782 4.76716 18.264 4.75412 18.234 4.72508C18.1968 4.68803 18.165 4.67 18.1119 4.70918C18.0863 4.7282 18.0409 4.72423 18.0017 4.73019C17.9904 4.69413 17.9847 4.66309 17.9733 4.63705C17.9591 4.60199 17.9563 4.56395 17.9012 4.55492C17.8842 4.55292 17.8581 4.54782 17.862 4.49782C17.8762 4.33356 17.807 4.20839 17.7107 4.0812C17.7022 4.06814 17.6656 4.05507 17.6627 4.03911C17.6542 3.99906 17.6937 4.02408 17.7209 4.00509C17.7465 3.9872 17.719 3.954 17.8121 3.96101C17.9563 3.97208 18.1025 3.94312 18.2658 3.92995C18.1766 3.79975 18.1627 3.7006 18.1315 3.66557C18.1059 3.63451 18.0114 3.57444 17.933 3.53336C17.9132 3.52342 17.8851 3.51945 17.8609 3.5203C17.8019 3.5223 17.7519 3.50922 17.7178 3.45718C17.7689 3.37906 17.8561 3.44725 17.9262 3.41111C17.9007 3.38414 17.851 3.34802 17.8501 3.32699C17.8831 3.31194 17.9413 3.34289 17.9753 3.34999C17.9952 3.31694 18.0134 3.29289 18.0324 3.26186C18.0239 3.24596 17.9904 3.2098 17.9975 3.19677C18.0747 3.11765 18.0827 3.14968 18.0455 3.04351C18.0597 3.03243 18.0784 3.07457 18.0986 3.09759C18.1042 3.07062 18.1465 3.04351 18.0585 2.99343C18.0529 2.98832 18.0784 2.97838 18.0934 2.96731C18.1048 2.95936 18.0924 2.94632 18.1048 2.94121C18.1332 2.93013 18.169 2.93525 18.178 2.92531C18.1028 2.86521 18.0449 2.80213 17.9717 2.74705C17.9186 2.71099 17.8925 2.66993 17.9285 2.62885C17.9697 2.65185 18.0117 2.67292 18.0517 2.69598C18.0773 2.72408 18.0574 2.75505 18.1048 2.77209C18.1162 2.76414 18.1758 2.76017 18.1789 2.74796C18.1846 2.73405 18.1389 2.70588 18.1338 2.69589C18.111 2.65682 18.0086 2.57871 17.9736 2.57769C17.9296 2.57569 17.8536 2.52361 17.8203 2.49255C17.8317 2.50248 17.8005 2.51555 17.8005 2.5256C17.7749 2.62775 17.6531 2.58868 17.6142 2.52049C17.6057 2.50743 17.577 2.51736 17.5671 2.50544C17.4981 2.42731 17.501 2.44533 17.4169 2.39826C17.4113 2.39315 17.4149 2.37925 17.4112 2.3562C17.4056 2.2961 17.3252 2.26205 17.3252 2.24704C17.3252 2.23114 17.3922 2.23995 17.4004 2.1369C16.9928 1.91855 16.5642 1.73828 16.1215 1.59807C16.0633 1.60602 16.0062 1.61907 15.9583 1.64113C15.8762 1.68419 15.7768 1.68019 15.6837 1.66214C15.6386 1.65419 15.6196 1.67321 15.5997 1.7102C15.5826 1.74126 15.5367 1.74325 15.5086 1.76929L15.5284 1.81135C15.5057 1.85342 15.4773 1.87848 15.4472 1.93355C15.3612 1.90051 15.288 1.85843 15.1988 1.84341C15.1006 1.82751 15.0237 1.78532 14.9595 1.71221C14.8905 1.6361 14.7903 1.58002 14.7293 1.4959C14.7122 1.4729 14.7094 1.43579 14.7151 1.40976C14.7207 1.3896 14.7483 1.3777 14.7752 1.37068C14.7923 1.36868 14.8133 1.37665 14.8303 1.3758C14.8474 1.37379 14.8914 1.32671 14.9095 1.3187C14.6901 1.28764 14.4689 1.26463 14.2465 1.2506C14.3036 1.26451 14.3447 1.29466 14.3709 1.34775C14.3408 1.34674 14.3138 1.34462 14.2877 1.34264L14.2857 1.35457C14.4299 1.41765 14.6482 1.49477 14.6973 1.54284C14.7001 1.55589 14.6493 1.56896 14.534 1.60192C14.5057 1.60789 14.4639 1.55084 14.2927 1.48975C14.2871 1.48775 14.2638 1.50282 14.2643 1.50367C14.27 1.52184 14.2785 1.54274 14.2933 1.55375C14.3484 1.58981 14.4074 1.62388 14.4724 1.66192C14.4364 1.68889 14.3654 1.66788 14.3992 1.74405C14.3171 1.69897 14.245 1.65992 14.1729 1.62085L14.1673 1.6288C14.2073 1.66185 14.2465 1.69292 14.2865 1.72497C14.2837 1.73093 14.2808 1.73603 14.2751 1.74284C14.1499 1.71786 14.0318 1.66773 13.9105 1.62668C13.8964 1.62072 13.8634 1.57861 13.8523 1.56657C13.8523 1.56657 13.7382 1.50346 13.684 1.48745C13.6301 1.47155 13.5628 1.46135 13.4946 1.46447C13.4265 1.46759 13.4115 1.44147 13.4115 1.44147C13.4115 1.44147 13.4342 1.3994 13.4677 1.39642C13.5006 1.39642 13.5878 1.41941 13.64 1.42254C13.6931 1.4285 13.7712 1.4356 13.7712 1.4356C13.7655 1.4126 13.7626 1.40353 13.7598 1.38851C13.8169 1.38141 13.8739 1.37348 13.9361 1.36553C13.9219 1.33447 13.9333 1.28239 13.8691 1.32646C13.8578 1.3344 13.8279 1.31851 13.7939 1.31255C13.8137 1.29949 13.8228 1.29465 13.8319 1.28755C13.812 1.28443 13.7879 1.28246 13.7709 1.27452C13.751 1.26458 13.7357 1.25151 13.7209 1.23544C13.4927 1.23744 13.2652 1.24851 13.0389 1.26949C13.0678 1.34461 13.1621 1.3476 13.21 1.4257C13.1339 1.41463 13.0579 1.39366 12.9838 1.38565C12.9418 1.38665 12.8875 1.41176 12.8475 1.40779C12.8191 1.40466 12.8004 1.34068 12.7975 1.3427C12.8305 1.31065 12.8918 1.29562 12.9557 1.27759C12.8083 1.29264 12.6622 1.31266 12.517 1.33469C12.0843 1.42281 11.9571 1.55101 11.8961 1.6131C11.8961 1.6131 11.9733 1.65518 11.9983 1.67119C11.9784 1.70424 11.9622 1.73328 11.9483 1.75634C12.0153 1.77734 12.1928 1.83546 12.2438 1.86851C12.3318 2.00671 12.5021 1.99671 12.6424 2.04378C12.6114 2.08784 12.6043 2.13491 12.5773 2.17599C12.5717 2.18508 12.5717 2.20297 12.5773 2.21407C12.5944 2.25012 12.5972 2.27615 12.6193 2.31221C12.625 2.32016 12.6392 2.33323 12.6483 2.33237C12.8476 2.32726 12.8346 2.26726 12.8646 2.10802C12.9617 2.09496 13.2022 2.10292 13.2272 1.98684C13.23 1.92174 13.1611 1.86163 13.1111 1.84562C13.1139 1.83965 13.1196 1.8317 13.1225 1.82461C13.1594 1.8226 13.2536 1.78554 13.2655 1.77254C13.2485 1.74954 13.2712 1.74643 13.24 1.70944C13.2741 1.70234 13.2911 1.70234 13.299 1.6794C13.301 1.67344 13.299 1.65725 13.2962 1.64734C13.2942 1.64138 13.2952 1.63428 13.2982 1.62945C13.3039 1.62349 13.3096 1.61953 13.3209 1.62038C13.4211 1.63145 13.5253 1.64735 13.6244 1.67145C13.6695 1.68451 13.7246 1.7065 13.7496 1.74156C13.8007 1.81467 13.8716 1.81167 13.9358 1.83773C13.8747 1.90283 13.9131 1.96891 13.9758 2.00999C14.113 2.10916 14.2583 2.03811 14.3815 1.96994C14.4246 2.03405 14.5458 2.14522 14.5938 2.2033C14.5938 2.2033 14.5796 2.24238 14.637 2.3385C14.6972 2.43767 14.8624 2.48172 14.9765 2.53078C14.9413 2.56783 14.9594 2.58185 15.1238 2.65898C15.121 2.68595 15.1228 2.71407 15.104 2.73011C15.0756 2.75623 15.0327 2.76715 15.0049 2.77417C14.9617 2.78723 14.9208 2.77728 14.8868 2.77215C14.8368 2.7642 14.7877 2.76108 14.7386 2.7801C14.6403 2.81817 14.5484 2.80708 14.4501 2.77911C14.3028 2.73703 14.1547 2.70099 14.0054 2.66695C13.9444 2.65191 13.8814 2.64905 13.8252 2.69504C13.8081 2.70896 13.7681 2.70299 13.738 2.70811C13.6608 2.72003 13.4655 2.79025 13.3985 2.82429C13.5748 2.78122 13.755 2.73813 13.9754 2.74614C14.0126 2.74814 14.0475 2.75609 14.0975 2.78521C14.1116 2.79316 14.1275 2.81133 14.123 2.82626C14.121 2.83733 14.0946 2.85039 14.081 2.85039C14.0319 2.85436 13.9828 2.8524 13.9336 2.8524C13.9326 2.85836 13.9308 2.86347 13.9308 2.8683C13.9759 2.87341 14.0199 2.87936 14.0762 2.88532C14.0441 2.90236 14.0171 2.91538 13.989 2.93142C14.0117 3.03558 14.096 3.07761 14.2022 3.09765C14.2351 3.10362 14.2854 3.12379 14.3194 3.13571C14.3776 3.10567 14.4327 3.07662 14.4878 3.04556C14.502 3.03761 14.5207 3.04357 14.5048 3.06345C14.4716 3.0965 14.4992 3.09451 14.4906 3.11052C14.5048 3.12358 14.5227 3.13862 14.5386 3.15258C14.5443 3.15769 14.5443 3.16253 14.5358 3.16764C14.4648 3.15657 14.4668 3.18665 14.3805 3.17359C14.3748 3.18268 14.4032 3.19972 14.3578 3.1966C14.1977 3.19559 14.0363 3.17048 13.881 3.22564C13.8481 3.23757 13.8121 3.2458 13.7899 3.20662C13.7814 3.19357 13.7672 3.17555 13.77 3.16556C13.7757 3.14966 13.7956 3.13352 13.8112 3.13051C13.8643 3.11859 13.9194 3.11261 13.9756 3.08945C13.9728 3.0564 13.8595 3.0744 13.7581 3.07355C13.717 3.1056 13.575 3.10054 13.4847 3.09259C13.3746 3.07868 13.2375 3.12068 13.1823 3.20374C13.1737 3.21765 13.1851 3.24079 13.1993 3.25081C13.2135 3.26387 13.2643 3.26785 13.2615 3.28588C13.0261 3.28788 12.9631 3.23482 12.8348 3.24682C12.8348 3.2508 12.8519 3.2559 12.8462 3.26896C12.8632 3.27208 12.8811 3.27493 12.8973 3.2809C12.9115 3.28601 12.9464 3.28798 12.9705 3.29082C12.9762 3.29394 12.9762 3.29792 12.9705 3.30076C12.9345 3.30076 12.8794 3.30388 12.8655 3.30076C12.8334 3.28969 12.8025 3.30076 12.7795 3.30076C12.7539 3.3348 12.7113 3.3348 12.6903 3.35584C12.6676 3.37372 12.6463 3.44498 12.6072 3.43698C12.6062 3.40191 12.5702 3.39291 12.5572 3.37687C12.5515 3.38084 12.543 3.38397 12.5373 3.38681C12.5773 3.51201 12.447 3.505 12.4121 3.57711C12.3979 3.58705 12.4008 3.56718 12.3951 3.56405C12.4093 3.54617 12.4093 3.53199 12.4178 3.52299C12.3979 3.49885 12.4178 3.44487 12.4178 3.40984C12.4121 3.3999 12.3922 3.40274 12.3869 3.4229C12.3698 3.48098 12.3468 3.52804 12.3585 3.58814C12.3905 3.65324 12.3595 3.71835 12.2864 3.73638C12.2665 3.74234 12.2281 3.73637 12.2384 3.77742C12.2384 3.77842 12.21 3.79133 12.1932 3.79133C12.0981 3.79033 12.0521 3.80638 12.0039 3.84842C11.8696 3.83536 11.7796 3.93756 11.6603 3.96558C11.5962 3.98063 11.5332 4.03069 11.4931 4.08077C11.4111 4.20597 11.4733 4.38122 11.4471 4.52143C11.4358 4.58454 11.3679 4.65463 11.362 4.70372C11.362 4.70372 11.3506 4.70473 11.3421 4.70573C11.3222 4.70674 11.2689 4.72475 11.251 4.70062C11.2737 4.65656 11.216 4.57843 11.199 4.51132C11.182 4.44824 11.182 4.36409 11.2104 4.30399C11.2274 4.26893 11.2274 4.26093 11.1933 4.23089C11.1848 4.22379 11.1791 4.21384 11.1763 4.20589C11.1536 4.14278 11.1303 4.12477 11.061 4.15385C11.0281 4.16974 11 4.16378 10.977 4.1248C10.96 4.09669 10.9128 4.07871 10.8768 4.0627C10.8356 4.0468 10.7837 4.08768 10.7425 4.03366C10.7283 4.01577 10.6102 4.04956 10.5682 4.05382C10.5625 4.05694 10.5824 4.09289 10.5568 4.10691C10.5512 4.11202 10.5398 4.11485 10.5426 4.12393C10.5426 4.12706 10.5568 4.15091 10.5512 4.15699C10.5398 4.16692 10.5341 4.16693 10.5341 4.16693L10.5226 4.16704ZM18.4257 2.88608C18.4648 2.80997 18.3766 2.76892 18.3215 2.73386C18.3044 2.72392 18.2775 2.72988 18.2454 2.72675C18.2624 2.75089 18.2681 2.76381 18.2803 2.77882C18.2661 2.78479 18.2519 2.7899 18.2392 2.79472C18.2448 2.81261 18.2477 2.82877 18.2562 2.85483C18.2181 2.84489 18.192 2.83692 18.1651 2.83068L18.1594 2.84177C18.1974 2.85994 18.2355 2.8788 18.2786 2.89884C18.2956 2.85276 18.3206 2.83976 18.3626 2.88578C18.3712 2.89685 18.4217 2.89403 18.4257 2.88608Z" fill="black" fill-opacity="0.85"/>
<path fill-rule="evenodd" clip-rule="evenodd" d="M13.7425 1.28142C13.7596 1.36256 13.6253 1.31847 13.5722 1.31347C13.6293 1.25036 13.6894 1.28443 13.7425 1.28142Z" fill="black" fill-opacity="0.85"/>
<path d="M15.0733 2.84203C14.9493 2.85906 14.9541 2.90612 14.9402 2.93817C14.9833 2.94413 15.0523 2.93023 15.0915 2.93505L15.0972 2.94896C15.0887 2.95293 15.083 2.95691 15.062 2.96685C15.1582 2.99791 15.2442 3.02395 15.3334 3.04998C15.3249 3.0761 15.2894 3.11008 15.2814 3.13112C15.3305 3.15922 15.3706 3.14305 15.3734 3.15128C15.3791 3.15923 15.3172 3.18634 15.2942 3.20236L15.2999 3.21228C15.3254 3.20433 15.3819 3.18124 15.3901 3.18618C15.4129 3.20321 15.3618 3.20917 15.3501 3.24227C15.3785 3.2383 15.4052 3.22835 15.4191 3.22523C15.4248 3.23318 15.4134 3.24028 15.4276 3.25135C15.3816 3.33649 15.3865 3.33748 15.3325 3.29541C15.3269 3.2903 15.3524 3.27242 15.3305 3.25837C15.322 3.25326 15.3163 3.27227 15.2965 3.2805C15.2823 3.27454 15.2681 3.27142 15.2505 3.26744C15.2562 3.25041 15.2945 3.23439 15.2703 3.20935C15.1943 3.22128 15.1151 3.22837 15.0461 3.22525C15.029 3.22128 15.0347 3.20936 15.0451 3.20623C15.0862 3.20723 15.1461 3.1963 15.1433 3.19033C15.0502 3.16223 14.9721 3.14426 14.8869 3.11823C14.8069 3.09211 14.6706 3.11226 14.6397 3.05812C14.6113 3.00804 14.7388 2.91392 14.8739 2.8388C14.9028 2.82091 14.9829 2.80574 15.0613 2.80273C15.0698 2.80671 15.0535 2.83402 15.0733 2.84203Z" fill="black" fill-opacity="0.85"/>
<path fill-rule="evenodd" clip-rule="evenodd" d="M18.9917 3.94336C19.0201 4.01947 19.0658 4.06456 19.065 4.10862C19.002 4.07756 18.9687 4.04253 18.9699 4.00045C18.9709 3.98257 18.9917 3.98342 18.9917 3.94336Z" fill="black" fill-opacity="0.85"/>
<path d="M14.0343 2.97895C14.0457 2.97496 14.0628 2.95389 14.0724 2.9458C14.1117 3.0402 14.2139 3.00405 14.2834 3.05025C14.2484 3.05822 14.2171 3.06619 14.1849 3.07445C14.0995 3.0373 14.0915 3.03116 14.0343 2.97895Z" fill="black" fill-opacity="0.85"/>
<path d="M14.1152 2.73185C14.1986 2.71677 14.3011 2.763 14.3774 2.8373L14.3688 2.85522C14.2533 2.82408 14.1693 2.769 14.1152 2.73185Z" fill="black" fill-opacity="0.85"/>
<path d="M16.9594 3.1577C16.9707 3.12366 16.9651 3.08762 16.9537 3.07158C16.9157 3.04859 16.9196 3.04743 16.8816 3.0245C16.8836 3.01853 16.8759 2.99246 16.8759 2.98544C16.9088 2.96955 16.9171 2.95848 16.9389 2.94039C16.973 2.89732 16.9247 2.89331 16.9332 2.8813C16.9744 2.82924 17.0303 2.79819 17.0834 2.78516C17.109 2.80815 17.1345 2.83123 17.1675 2.86027C17.1665 2.86228 17.1589 2.88327 17.1533 2.89332C17.1873 2.92538 17.2404 2.96241 17.2583 3.05354C17.1731 3.12866 17.0991 3.19877 17.0491 3.22582C17.0235 3.24172 16.9869 3.24086 16.969 3.22782C16.9577 3.21788 16.948 3.19972 16.9594 3.1577Z" fill="black" fill-opacity="0.85"/>
<path d="M17.1885 2.8107C17.1828 2.7948 17.18 2.78064 17.1743 2.76562C17.1573 2.77073 17.1516 2.76053 17.1192 2.7716C17.1363 2.74157 17.1391 2.74055 17.1493 2.72454L17.1323 2.73361C17.1181 2.71345 17.1096 2.68954 17.0931 2.67452C17.0704 2.65351 17.04 2.64049 17.0222 2.63047C17.042 2.59441 17.0622 2.56236 17.0832 2.52932C17.1133 2.52932 17.1544 2.52932 17.2064 2.52832C17.1613 2.59841 17.1837 2.61545 17.2535 2.60443C17.3137 2.59535 17.3506 2.61749 17.3466 2.68256C17.3447 2.70272 17.3495 2.72361 17.3495 2.72963C17.4857 2.82879 17.651 2.87784 17.7381 3.02407C17.7991 2.96698 17.8962 3.01413 17.8684 3.15929C17.8854 3.16525 17.9025 3.17321 17.9195 3.18145C17.9185 3.18854 17.9185 3.19534 17.9185 3.19648C17.8929 3.24255 17.6843 3.23454 17.598 3.27162C17.552 3.29064 17.581 3.21553 17.4447 3.28154C17.5049 3.14932 17.5327 3.1884 17.5648 3.16035C17.5197 3.15127 17.4677 3.13933 17.3996 3.12329C17.4487 3.09632 17.4907 3.03217 17.4194 3.02714C17.4081 3.02614 17.4081 3.00103 17.3996 2.98309H17.4756C17.4813 2.97798 17.4842 2.97202 17.4899 2.96918C17.4558 2.91209 17.4336 2.89405 17.3817 2.84899C17.3326 2.84699 17.2414 2.90708 17.2545 2.7789C17.2261 2.79196 17.2084 2.79965 17.1885 2.8107L17.1856 2.81096L17.1885 2.8107Z" fill="black" fill-opacity="0.85"/>
<path d="M19.1492 4.3947C19.1321 4.29728 19.0738 4.26613 19.0427 4.19985C19.037 4.1879 19.0627 4.16371 19.0769 4.14062C19.1421 4.20992 19.1925 4.3003 19.1993 4.35254C19.2022 4.38369 19.1822 4.35766 19.1663 4.40176C19.1606 4.39975 19.1492 4.39981 19.1492 4.3947Z" fill="black" fill-opacity="0.85"/>
<path d="M13.4353 12.3793C13.4353 12.3537 13.3822 12.3679 13.3461 12.3736C13.3348 12.3746 13.3762 12.3963 13.24 12.4829C13.2598 12.4829 13.3552 12.4849 13.3231 12.5C13.2138 12.588 13.1057 12.6462 12.9876 12.7183C12.9763 12.7239 12.9587 12.7268 12.9496 12.724C12.8914 12.6859 12.8173 12.724 12.7594 12.6459C12.7367 12.6129 12.6992 12.6175 12.6844 12.6078C12.6788 12.6059 12.6535 12.5477 12.6444 12.5528C12.6416 12.5556 12.6143 12.5698 12.616 12.5783C12.6189 12.5897 12.6359 12.6104 12.6359 12.6104C12.6643 12.6413 12.7091 12.6754 12.7321 12.7055C12.735 12.7112 12.7301 12.7364 12.7151 12.7606C12.7094 12.7719 12.7094 12.8006 12.7236 12.8267C12.7293 12.8409 12.7577 12.8352 12.7537 12.8608C12.7452 12.9127 12.6447 12.986 12.5853 12.9829C12.5101 12.9819 12.4352 12.9744 12.3611 12.9658C12.2981 12.9573 12.2438 13.0039 12.2609 13.0669C12.2722 13.103 12.2588 13.114 12.2325 13.112C12.1643 13.1064 12.1022 13.0922 12.0411 13.0558C12.0326 13.16 12.0421 13.1711 12.1283 13.187C12.1425 13.1898 12.1538 13.2191 12.1723 13.2409C12.1113 13.2608 12.0292 13.2466 12.0462 13.3281C12.0519 13.348 12.0377 13.3721 12.032 13.3931C11.996 13.4073 11.927 13.4073 11.9139 13.4312C11.8969 13.5172 11.9872 13.5052 12.0491 13.5464C12.0519 13.572 12.0519 13.5964 12.0462 13.6066C12.0264 13.6293 11.9761 13.6636 11.952 13.6818C11.954 13.7108 11.9577 13.7329 11.9463 13.7448C11.9293 13.7477 11.9031 13.7591 11.8853 13.7619C11.8966 13.819 11.9344 13.8561 11.9483 13.8791C11.9463 13.8905 11.9031 13.8678 11.875 13.8649L11.9653 13.924C12.0173 13.9541 11.9954 13.964 12.0445 14.0092C12.0905 14.0503 12.1135 14.0583 12.1115 14.0634C12.1087 14.0719 12.1201 14.1153 11.9792 14.0691C11.812 14.0148 11.7689 13.9938 11.5726 13.8036C11.5726 13.8036 11.4676 13.7094 11.3963 13.5112C11.3906 13.497 11.3736 13.4791 11.3821 13.4672C11.3878 13.4587 11.3991 13.4558 11.4213 13.4587C11.4193 13.4388 11.4233 13.4075 11.4128 13.3996C11.3957 13.3854 11.3375 13.4166 11.3347 13.3769C11.3574 13.3178 11.3676 13.3309 11.3779 13.2738C11.3807 13.2568 11.3608 13.2367 11.3608 13.1538C11.3608 13.1396 11.3835 13.1339 11.3938 13.1424C11.4108 13.1784 11.4247 13.2284 11.45 13.2514C11.4216 13.0791 11.4443 13.1293 11.4272 13.003C11.4074 12.9775 11.3989 12.9916 11.3923 12.9916V13.1149C11.3424 13.1092 11.3242 13.0922 11.3353 13.0158C11.3373 13.0044 11.3551 13.0129 11.3362 12.9766C11.3192 12.9457 11.3249 12.8974 11.3249 12.8716C11.3581 12.7824 11.3277 12.7004 11.2908 12.6243C11.2417 12.53 11.2918 12.5593 11.3022 12.5201C11.3522 12.3557 11.4305 12.1946 11.3842 12.0113C11.3701 11.9594 11.3422 11.8992 11.3928 11.8461C11.3984 11.8404 11.3956 11.8234 11.3928 11.8132C11.3627 11.7251 11.4041 11.6479 11.4228 11.5659C11.4342 11.5108 11.4399 11.4537 11.4456 11.3975C11.4569 11.3053 11.4683 11.2113 11.4598 11.119C11.4617 11.054 11.4577 11.0228 11.4654 10.9737C11.4711 10.9305 11.5046 10.8896 11.5066 10.8454C11.5086 10.7451 11.5009 10.6449 11.4952 10.5449C11.4942 10.5279 11.4896 10.5057 11.4782 10.4929C11.355 10.3448 11.2318 10.1985 11.0646 10.1003C10.9445 10.0294 10.8894 9.90701 10.8241 9.76083C10.8128 9.73812 10.8014 9.70575 10.7861 9.67168C11.7986 9.63963 12.8092 9.6216 13.8177 9.6226C14.5758 9.6226 15.4592 9.62771 16.2183 9.6456C16.2127 9.74976 16.207 9.86992 16.207 9.88996C16.1956 10.0342 16.1709 10.0421 16.1079 10.1744C16.0537 10.2794 15.9637 10.3266 15.8845 10.3868C15.7613 10.481 15.617 10.5449 15.5049 10.6542C15.4648 10.6863 15.4288 10.7362 15.3836 10.7493C15.1943 10.7984 15.2224 10.9775 15.1534 11.1138C15.0892 11.2592 15.0061 11.3231 14.9192 11.4714C14.8812 11.5234 14.809 11.5554 14.7548 11.5946C14.7168 11.6877 14.6308 11.7218 14.5555 11.7709C14.4865 11.7908 14.4105 11.7454 14.3392 11.7377C14.2722 11.7264 14.189 11.7738 14.1649 11.8229C14.0297 11.8002 13.9466 11.8598 13.8324 11.912C13.7452 11.9489 13.7242 12.0273 13.7262 12.1054C13.7282 12.1655 13.7035 12.1996 13.6612 12.2226C13.572 12.2717 13.5079 12.3427 13.4369 12.416C13.4068 12.4469 13.3827 12.45 13.3787 12.45C13.3777 12.451 13.3544 12.4531 13.4353 12.3793Z" fill="black" fill-opacity="0.85"/>
<path d="M24.232 9.5006C24.1479 9.27928 24.0628 9.05992 23.9776 8.84059C23.5109 8.80252 23.0432 8.76749 22.5764 8.73441L22.3209 9.35637C22.0376 9.33735 21.7541 9.3183 21.4706 9.30229C21.9544 8.20261 22.4371 7.10392 22.9209 6.01025C23.039 6.01934 23.1582 6.02729 23.2764 6.03638C23.3956 6.04546 23.5137 6.05341 23.633 6.06334C24.1157 7.23112 24.5984 8.40192 25.0812 9.57371C24.7987 9.54759 24.5154 9.52462 24.232 9.5006ZM22.8579 8.04839C23.1372 8.0694 23.4167 8.09045 23.6962 8.11248C23.5559 7.75093 23.4168 7.39039 23.2765 7.02884C23.1374 7.36936 22.9972 7.70887 22.8579 8.04839Z" fill="black" fill-opacity="0.85"/>
<path d="M9.92619 9.13759C9.46148 8.02188 8.99676 6.91119 8.53204 5.8015C8.82849 5.78844 9.12596 5.77653 9.42241 5.76546C9.69069 6.46452 9.95923 7.16359 10.2276 7.86266C10.4962 7.14756 10.7645 6.43246 11.0328 5.71837C11.3303 5.71127 11.6268 5.70531 11.9242 5.7002C11.4585 6.83693 10.9938 7.97667 10.5291 9.11942C10.4289 9.12254 10.3278 9.12453 10.2276 9.12736C10.1274 9.13049 10.0275 9.13475 9.92619 9.13759Z" fill="black" fill-opacity="0.85"/>
<path d="M1.0717 8.38314C1.0717 8.86587 1.25198 9.09222 1.67362 9.04915C2.09626 9.00708 2.27654 8.74668 2.27654 8.26394V6.22986C2.54398 6.20374 2.81234 6.17976 3.07977 6.15674V8.20388C3.07977 9.14532 2.61003 9.68213 1.67362 9.77427C0.738181 9.86739 0.26947 9.42373 0.26947 8.4823V6.43517C0.536902 6.40613 0.804298 6.37708 1.0717 6.35003" fill="black" fill-opacity="0.85"/>
<path d="M20.1636 7.09803C20.6864 7.31337 21.4015 7.57576 21.4015 8.27383C21.4015 8.98792 20.8918 9.36449 20.0004 9.32043C19.4746 9.29431 18.9247 8.9809 18.7685 8.88676C18.7628 8.88363 18.7571 8.88081 18.7515 8.87684V8.0756C18.7685 8.08554 18.7835 8.09462 18.7994 8.10666C19.2792 8.41012 19.6758 8.58139 19.9993 8.62145C20.3849 8.67053 20.5641 8.55536 20.5641 8.32399C20.5641 8.22784 20.4841 8.13271 20.3106 8.04757C20.2115 7.99749 20.0923 7.94839 19.9661 7.89632C19.4052 7.66898 18.7082 7.44666 18.7082 6.67047C18.7082 5.98442 19.3131 5.70198 19.913 5.73103C20.3717 5.75203 20.9186 5.98341 21.1749 6.13264C21.1806 6.13576 21.1863 6.13974 21.192 6.14258V6.94379C21.1749 6.93386 21.1599 6.92364 21.144 6.91273C20.9859 6.81158 20.4289 6.47707 19.9131 6.45303C19.6536 6.44111 19.5416 6.53516 19.5416 6.65633C19.5416 6.74246 19.6248 6.84462 19.7959 6.93377C19.897 6.98785 20.0273 7.04094 20.1636 7.09803Z" fill="black" fill-opacity="0.85"/>
<path d="M17.6132 7.8187C17.8795 8.26338 18.1451 8.70806 18.4115 9.15373C18.111 9.14266 17.8095 9.13272 17.5091 9.12469C17.2737 8.71506 17.0384 8.30645 16.802 7.89983C16.6186 7.89586 16.4355 7.89187 16.2522 7.88874V9.09359C15.9887 9.08848 15.7254 9.08564 15.462 9.08252V5.69434C16.0669 5.7003 16.6718 5.71336 17.2767 5.7294C17.9067 5.74644 18.2652 6.17709 18.2652 6.82508C18.2652 7.45804 17.9187 7.71454 17.6132 7.8187ZM16.2482 7.18173C16.4946 7.18769 16.7419 7.1928 16.9883 7.19763C17.3579 7.20756 17.432 7.00133 17.432 6.82705C17.432 6.65279 17.3567 6.44147 16.9883 6.43245C16.7419 6.42536 16.4945 6.42054 16.2482 6.41543" fill="black" fill-opacity="0.85"/>
<path d="M7.39926 9.24462C7.39725 8.11489 7.39642 6.98616 7.39642 5.85644C7.66272 5.84139 7.93023 5.82834 8.19664 5.81738V9.20455C7.9312 9.21761 7.66465 9.23068 7.39926 9.24462Z" fill="black" fill-opacity="0.85"/>
<path d="M13.0457 7.71121V8.36022C13.6516 8.35511 14.2565 8.35511 14.8625 8.36022V9.07529C13.9961 9.06933 13.1298 9.07217 12.2645 9.08324C12.2625 7.95352 12.2617 6.82481 12.2617 5.69508C13.122 5.68401 13.9833 5.68117 14.8436 5.68713V6.39822C14.2447 6.39425 13.6458 6.39425 13.0469 6.39822V6.99713C13.4535 6.99401 13.8601 6.99314 14.2667 6.99399V7.7101C13.8601 7.7091 13.4523 7.71021 13.0457 7.71121Z" fill="black" fill-opacity="0.85"/>
<path d="M5.93485 5.94111C6.2003 5.92521 6.46565 5.90906 6.73104 5.89404V9.28222C6.51386 9.29415 6.29738 9.3072 6.08006 9.32128L6.07155 9.30822C5.56079 8.66123 5.05 8.01726 4.54023 7.37528V9.42841C4.27478 9.44856 4.00941 9.46947 3.74402 9.4905V6.10232C4.00151 6.08217 4.2588 6.06127 4.51619 6.04222L4.5247 6.05331C4.99444 6.6422 5.46414 7.23511 5.93487 7.82901" fill="black" fill-opacity="0.85"/>
<path d="M25.4181 6.21631C25.6835 6.24044 25.9479 6.26639 26.2133 6.29242V8.97051C26.669 9.01559 27.1247 9.06264 27.5794 9.11375V9.82382C26.8613 9.74461 26.1422 9.67059 25.4221 9.60447C25.4211 8.47574 25.4181 7.34603 25.4181 6.21631Z" fill="black" fill-opacity="0.85"/>
</g>
<defs>
<clipPath id="clip0_7032_114654">
<rect width="27.3097" height="14.4363" fill="white" transform="translate(0.270691 0.746094)"/>
</clipPath>
</defs>
</svg>
