<svg width="51" height="8" viewBox="0 0 51 8" fill="none" xmlns="http://www.w3.org/2000/svg">
<path d="M12.1838 3.20605H7.99834L7.84326 3.32202V7.04544H9.00191V5.64918L9.11251 5.55007H12.184C12.9595 5.55007 13.3231 5.34142 13.3231 4.80605V3.95113C13.3229 3.41486 12.9595 3.20605 12.1838 3.20605ZM12.1838 4.58262C12.1838 4.83485 12.017 4.88724 11.6534 4.88724H9.1252L9.00176 4.76724V3.96963L9.11236 3.86844H11.6534C12.017 3.86844 12.1838 3.92023 12.1838 4.17366V4.58262Z" fill="black" fill-opacity="0.85"/>
<path d="M15.4358 3.91063L16.4328 5.37137L16.3776 5.51286H14.1727L13.6099 6.20525H16.8919L17.1194 6.34375L17.629 7.04659H18.9549L16.0485 3.15869" fill="black" fill-opacity="0.85"/>
<path d="M28.6211 6.29008V5.25665L28.7403 5.15366H30.9585V4.49561H27.4429V7.04619H32.6288V6.39127H28.7456" fill="black" fill-opacity="0.85"/>
<path d="M32.6836 3.20605H27.4429V3.92963H32.6836V3.20605Z" fill="black" fill-opacity="0.85"/>
<path d="M21.597 3.89138H25.8191C25.754 3.35452 25.4209 3.20557 24.5758 3.20557H21.5521C20.5985 3.20557 20.2943 3.39169 20.2943 4.11332V6.13794C20.2943 6.86033 20.5985 7.04645 21.5521 7.04645H24.5758C25.4332 7.04645 25.7616 6.8854 25.784 6.32854H21.597L21.4728 6.21167V3.96959" fill="black" fill-opacity="0.85"/>
<path d="M5.02595 4.70213H1.95447L1.86403 4.60258V3.94556L1.95403 3.87601H6.09461L6.15117 3.73765C6.01013 3.37482 5.64491 3.20557 4.9667 3.20557H2.09044C1.13746 3.20557 0.832838 3.39169 0.832838 4.11332V4.5378C0.832838 5.26033 1.13746 5.44615 2.09044 5.44615H5.15506L5.25133 5.53063V6.21749L5.17282 6.32466H1.66731V6.32137H0.749107C0.749107 6.32137 0.644032 6.37406 0.648062 6.39869C0.72642 6.90346 1.0703 7.04645 1.89358 7.04645H5.02595C5.97879 7.04645 6.29252 6.86033 6.29252 6.13794V5.60914C6.29252 4.88795 5.97879 4.70213 5.02595 4.70213Z" fill="black" fill-opacity="0.85"/>
<path d="M35.9801 3.19043H34.2561L34.1625 3.36849L36.0771 4.76415C36.4398 4.55416 36.8344 4.34132 37.2637 4.13132" fill="black" fill-opacity="0.85"/>
<path d="M37.5249 5.81955L39.2077 7.0467H40.9528L41.025 6.88417L38.5122 5.04492C38.1785 5.28985 37.8488 5.5485 37.5249 5.81955Z" fill="black" fill-opacity="0.85"/>
<path d="M35.7233 7.04404H34.1635L34.0317 6.83762C35.0923 5.81359 39.8358 1.42391 50.1468 0.953613C50.1468 0.953613 41.4922 1.24555 35.7233 7.04404Z" fill="black" fill-opacity="0.85"/>
</svg>
