<svg width="30" height="11" viewBox="0 0 30 11" fill="none" xmlns="http://www.w3.org/2000/svg">
<g clip-path="url(#clip0_7032_114700)">
<path d="M12.9305 5.39818C12.9305 6.76514 11.8611 7.77243 10.5487 7.77243C9.23637 7.77243 8.16699 6.76514 8.16699 5.39818C8.16699 4.02158 9.23637 3.02393 10.5487 3.02393C11.8611 3.02393 12.9305 4.02158 12.9305 5.39818ZM11.8879 5.39818C11.8879 4.54396 11.2681 3.9595 10.5487 3.9595C9.8294 3.9595 9.20961 4.54396 9.20961 5.39818C9.20961 6.24383 9.8294 6.83686 10.5487 6.83686C11.2681 6.83686 11.8879 6.24276 11.8879 5.39818Z" fill="black" fill-opacity="0.85"/>
<path d="M18.0694 5.39818C18.0694 6.76514 17 7.77243 15.6877 7.77243C14.3753 7.77243 13.3059 6.76514 13.3059 5.39818C13.3059 4.02265 14.3753 3.02393 15.6877 3.02393C17 3.02393 18.0694 4.02158 18.0694 5.39818ZM17.0268 5.39818C17.0268 4.54396 16.407 3.9595 15.6877 3.9595C14.9683 3.9595 14.3485 4.54396 14.3485 5.39818C14.3485 6.24383 14.9683 6.83686 15.6877 6.83686C16.407 6.83686 17.0268 6.24276 17.0268 5.39818Z" fill="black" fill-opacity="0.85"/>
<path d="M22.993 3.16737V7.42988C22.993 9.18327 21.959 9.8994 20.7365 9.8994C19.5858 9.8994 18.8932 9.12975 18.632 8.50033L19.5397 8.12246C19.7014 8.50889 20.0974 8.9649 20.7354 8.9649C21.5179 8.9649 22.0028 8.48213 22.0028 7.57332V7.23185H21.9664C21.7331 7.5198 21.2835 7.77136 20.7162 7.77136C19.529 7.77136 18.4415 6.7373 18.4415 5.40674C18.4415 4.06654 19.529 3.02393 20.7162 3.02393C21.2824 3.02393 21.732 3.27548 21.9664 3.55487H22.0028V3.16844H22.993V3.16737ZM22.0767 5.40674C22.0767 4.57072 21.519 3.9595 20.8093 3.9595C20.09 3.9595 19.4873 4.57072 19.4873 5.40674C19.4873 6.23419 20.09 6.83686 20.8093 6.83686C21.519 6.83686 22.0767 6.23419 22.0767 5.40674Z" fill="black" fill-opacity="0.85"/>
<path d="M24.6256 0.668457V7.62636H23.6087V0.668457H24.6256Z" fill="black" fill-opacity="0.85"/>
<path d="M28.5877 6.17921L29.397 6.71871C29.1358 7.10514 28.5064 7.77096 27.4188 7.77096C26.07 7.77096 25.0627 6.72835 25.0627 5.39671C25.0627 3.98479 26.0786 3.02246 27.3021 3.02246C28.5342 3.02246 29.1369 4.00299 29.3338 4.53286L29.4419 4.80261L26.2681 6.11712C26.5111 6.59347 26.8889 6.83646 27.4188 6.83646C27.9497 6.83646 28.318 6.57527 28.5877 6.17921ZM26.0968 5.32499L28.2184 4.44401C28.1017 4.1475 27.7506 3.9409 27.3374 3.9409C26.8076 3.9409 26.07 4.40869 26.0968 5.32499Z" fill="black" fill-opacity="0.85"/>
<path d="M4.31744 4.78084V3.77355H7.71182C7.74501 3.94911 7.76213 4.15677 7.76213 4.38157C7.76213 5.1373 7.55554 6.0718 6.88972 6.73762C6.2421 7.412 5.41465 7.77167 4.31851 7.77167C2.2868 7.77167 0.578369 6.11676 0.578369 4.08505C0.578369 2.05335 2.2868 0.398438 4.31851 0.398438C5.44248 0.398438 6.24317 0.839461 6.84476 1.41429L6.13399 2.12507C5.7026 1.72044 5.11813 1.40573 4.31744 1.40573C2.8338 1.40573 1.67344 2.60142 1.67344 4.08505C1.67344 5.56869 2.8338 6.76438 4.31744 6.76438C5.27977 6.76438 5.82784 6.37795 6.17894 6.02684C6.46368 5.74211 6.65101 5.33534 6.72487 4.77977L4.31744 4.78084Z" fill="black" fill-opacity="0.85"/>
</g>
<defs>
<clipPath id="clip0_7032_114700">
<rect width="29.1161" height="9.84811" fill="white" transform="translate(0.540283 0.347656)"/>
</clipPath>
</defs>
</svg>
