<svg width="21" height="6" viewBox="0 0 21 6" fill="none" xmlns="http://www.w3.org/2000/svg">
<path d="M4.01961 4.36375C4.08313 4.604 4.18562 4.6969 4.36674 4.6969C4.55451 4.6969 4.65297 4.58409 4.65297 4.36375V0.273013H5.82918V4.36375C5.82918 4.94037 5.75438 5.19021 5.46202 5.48265C5.25132 5.6934 4.86267 5.8563 4.37194 5.8563C3.97548 5.8563 3.5961 5.72507 3.35416 5.48269C3.14205 5.27017 3.02553 5.05189 2.84344 4.36371L2.12169 1.63659C2.05813 1.39635 1.95568 1.30349 1.77456 1.30349C1.58674 1.30349 1.48828 1.41626 1.48828 1.63659V5.72737H0.312073V1.63659C0.312073 1.06001 0.386916 0.810135 0.679276 0.517694C0.8899 0.307029 1.27858 0.144043 1.76936 0.144043C2.16582 0.144043 2.54519 0.275311 2.78714 0.517654C2.99925 0.730173 3.11577 0.948455 3.29786 1.63663L4.01961 4.36375Z" fill="black" fill-opacity="0.85"/>
<path d="M19.5793 5.72737L18.2209 1.47792C18.2059 1.43101 18.1917 1.39119 18.17 1.36463C18.1327 1.3192 18.081 1.29535 18.0116 1.29535C17.9421 1.29535 17.8905 1.3192 17.8531 1.36463C17.8314 1.39115 17.8172 1.43097 17.8023 1.47792L16.4439 5.72737H15.2281L16.7119 1.08537C16.7892 0.843546 16.8997 0.638241 17.0399 0.501452C17.2805 0.266847 17.5641 0.144043 18.0116 0.144043C18.4591 0.144043 18.7427 0.266847 18.9833 0.501412C19.1235 0.638241 19.234 0.843506 19.3113 1.08533L20.7951 5.72733H19.5793V5.72737Z" fill="black" fill-opacity="0.85"/>
<path d="M13.5671 5.72737C14.3377 5.72737 14.7136 5.56366 15.0105 5.26836C15.3391 4.9417 15.4963 4.58429 15.4963 4.05068C15.4963 3.57917 15.3237 3.14244 15.0609 2.88112C14.7173 2.53939 14.2905 2.4317 13.5945 2.4317L12.6197 2.43165C12.2472 2.43165 12.0988 2.38664 11.9813 2.27125C11.9007 2.19209 11.8629 2.07437 11.8629 1.9356C11.8629 1.79216 11.8974 1.6505 11.996 1.55373C12.0835 1.46784 12.2027 1.42843 12.4319 1.42843H15.2492V0.273013H12.6471C11.8765 0.273013 11.5007 0.436765 11.2037 0.732027C10.8751 1.05868 10.7179 1.41605 10.7179 1.94967C10.7179 2.42126 10.8905 2.85794 11.1533 3.11923C11.497 3.46096 11.9238 3.56869 12.6197 3.56869L13.5946 3.56877C13.9671 3.56877 14.1155 3.61371 14.2329 3.72914C14.3136 3.80833 14.3514 3.92602 14.3514 4.06478C14.3514 4.20822 14.3168 4.34989 14.2183 4.44666C14.1308 4.53254 14.0115 4.57196 13.7823 4.57196H10.8767L9.7623 1.08537C9.685 0.843546 9.57449 0.638241 9.43427 0.501452C9.19362 0.266847 8.91005 0.144043 8.46256 0.144043C8.01507 0.144043 7.73146 0.266847 7.49093 0.501412C7.35067 0.638241 7.2402 0.843506 7.1629 1.08533L5.67914 5.72733H6.89493L8.25331 1.47788C8.2683 1.43097 8.28245 1.39115 8.30421 1.36459C8.34153 1.31916 8.3932 1.29531 8.46264 1.29531C8.53208 1.29531 8.58371 1.31916 8.62107 1.36459C8.64284 1.39111 8.65698 1.43093 8.67194 1.47788L10.0303 5.72733H13.5671V5.72737Z" fill="black" fill-opacity="0.85"/>
</svg>
